<svg width="1330" height="1330" viewBox="0 0 1330 1330" fill="none" xmlns="http://www.w3.org/2000/svg">
<path d="M665 1330C526.803 1330 398.452 1287.85 292.104 1215.69C268.875 1199.93 265.714 1167.63 283.714 1146.09L404.147 1001.98C421.335 981.409 451.538 978.389 474.697 991.886C530.459 1024.38 595.306 1043 664.5 1043C751.997 1043 832.541 1013.23 896.557 963.273C917.956 946.573 948.771 945.708 968.531 964.317L1105.4 1093.21C1125.71 1112.34 1126.55 1144.55 1105.66 1163.05C988.334 1266.94 834.032 1330 665 1330Z" fill="url(#paint0_linear_186_80)"/>
<path d="M1175.31 1091.41C1157.78 1112.37 1126.37 1112.96 1106.48 1094.23L970.29 965.973C949.842 946.717 949.568 914.561 966.444 892.11C1013.89 828.999 1042 750.533 1042 665.5C1042 538.89 979.669 426.837 884.02 358.353C862.637 343.044 852.958 315.007 863.917 291.1L943.064 118.442C954.885 92.6554 985.886 81.7106 1010.12 96.4535C1201.91 213.123 1330 424.103 1330 665C1330 827.273 1271.88 975.971 1175.31 1091.41Z" fill="url(#paint1_linear_186_80)"/>
<path d="M665 0C742.39 0 816.693 13.2198 885.773 37.5244C912.156 46.8068 923.463 77.0789 911.715 102.46L832.343 273.944C821.003 298.444 792.319 309.156 766.318 301.891C733.927 292.839 699.779 288 664.5 288C456.013 288 287 457.013 287 665.5C287 756.331 321.041 839.67 375.103 904.805C391.989 925.149 393.95 954.939 376.928 975.17L245.156 1131.79C231.982 1147.45 208.445 1148.94 194 1134.45C74.1136 1014.17 0 848.241 0 665C0 297.731 297.731 0 665 0Z" fill="url(#paint2_linear_186_80)"/>
<rect x="527" y="409" width="35" height="101" rx="17.5" fill="#425AD3"/>
<rect x="767" y="409" width="35" height="101" rx="17.5" fill="#425AD3"/>
<path d="M915 807V527C915 488.34 883.66 457 845 457H817V495.5C817 513.173 802.673 527.5 785 527.5C767.327 527.5 753 513.173 753 495.5V457H577.5V494.5C577.5 512.725 562.725 527.5 544.5 527.5C526.275 527.5 511.5 512.725 511.5 494.5V457H485C446.34 457 415 488.34 415 527V807C415 879.902 474.098 939 547 939H783C855.902 939 915 879.902 915 807Z" fill="url(#paint3_linear_186_80)"/>
<path d="M446 616C446 599.431 459.431 586 476 586H853C869.569 586 883 599.431 883 616V800C883 859.094 835.094 907 776 907H553C493.906 907 446 859.094 446 800V616Z" fill="#F5F5FC"/>
<path d="M654.652 642.347C660.51 636.49 670.007 636.49 675.865 642.347L769.91 736.392C775.768 742.25 775.768 751.748 769.91 757.606L675.865 851.651C670.007 857.509 660.51 857.509 654.652 851.651L560.607 757.606C554.749 751.748 554.749 742.25 560.607 736.392L654.652 642.347ZM669.246 680.824C667.294 678.871 664.128 678.872 662.175 680.824L598.535 744.464C596.583 746.416 596.583 749.582 598.535 751.535L662.175 815.175C664.128 817.127 667.294 817.127 669.246 815.175L732.886 751.535C734.839 749.582 734.838 746.416 732.886 744.464L669.246 680.824Z" fill="url(#paint4_linear_186_80)"/>
<circle cx="1008" cy="1022" r="210" fill="url(#paint5_linear_186_80)"/>
<circle cx="1008.5" cy="991.5" r="197.5" fill="#F9F7FD"/>
<path d="M1000.98 1128.27V855.545H1018.45V1128.27H1000.98ZM1047.32 945.567C1046.47 936.973 1042.81 930.297 1036.35 925.538C1029.89 920.78 1021.12 918.401 1010.04 918.401C1002.51 918.401 996.151 919.466 990.966 921.597C985.781 923.656 981.804 926.533 979.034 930.226C976.335 933.919 974.986 938.109 974.986 942.797C974.844 946.703 975.661 950.112 977.436 953.024C979.283 955.936 981.804 958.457 985 960.588C988.196 962.648 991.889 964.459 996.08 966.021C1000.27 967.513 1004.74 968.791 1009.5 969.857L1029.11 974.544C1038.62 976.675 1047.36 979.516 1055.31 983.067C1063.27 986.618 1070.16 990.986 1075.98 996.17C1081.8 1001.36 1086.31 1007.46 1089.51 1014.49C1092.78 1021.53 1094.45 1029.59 1094.52 1038.68C1094.45 1052.03 1091.04 1063.61 1084.29 1073.41C1077.61 1083.14 1067.95 1090.7 1055.31 1096.1C1042.74 1101.43 1027.58 1104.09 1009.82 1104.09C992.209 1104.09 976.868 1101.39 963.8 1095.99C950.803 1090.6 940.646 1082.61 933.331 1072.02C926.087 1061.37 922.287 1048.19 921.932 1032.5H966.57C967.067 1039.81 969.162 1045.92 972.855 1050.82C976.619 1055.65 981.626 1059.31 987.876 1061.8C994.197 1064.21 1001.34 1065.42 1009.29 1065.42C1017.1 1065.42 1023.88 1064.28 1029.64 1062.01C1035.46 1059.74 1039.97 1056.58 1043.17 1052.53C1046.36 1048.48 1047.96 1043.83 1047.96 1038.57C1047.96 1033.67 1046.51 1029.55 1043.59 1026.21C1040.75 1022.87 1036.56 1020.03 1031.02 1017.69C1025.55 1015.35 1018.84 1013.22 1010.89 1011.3L987.131 1005.33C968.736 1000.86 954.212 993.862 943.558 984.345C932.905 974.828 927.614 962.009 927.685 945.886C927.614 932.676 931.129 921.135 938.232 911.263C945.405 901.391 955.241 893.685 967.741 888.145C980.241 882.605 994.446 879.835 1010.36 879.835C1026.55 879.835 1040.68 882.605 1052.76 888.145C1064.9 893.685 1074.35 901.391 1081.09 911.263C1087.84 921.135 1091.32 932.57 1091.53 945.567H1047.32Z" fill="#17264C"/>
<defs>
<linearGradient id="paint0_linear_186_80" x1="790.448" y1="71.21" x2="790.448" y2="1330" gradientUnits="userSpaceOnUse">
<stop stop-color="#14987E"/>
<stop offset="1" stop-color="#53D3A7"/>
</linearGradient>
<linearGradient id="paint1_linear_186_80" x1="790.448" y1="71.21" x2="790.448" y2="1330" gradientUnits="userSpaceOnUse">
<stop stop-color="#8F50F6"/>
<stop offset="1" stop-color="#D371FB"/>
</linearGradient>
<linearGradient id="paint2_linear_186_80" x1="466.551" y1="0" x2="466.551" y2="1160.5" gradientUnits="userSpaceOnUse">
<stop stop-color="#3B82FA"/>
<stop offset="1" stop-color="#6899FB"/>
</linearGradient>
<linearGradient id="paint3_linear_186_80" x1="830.5" y1="471.5" x2="479.5" y2="912" gradientUnits="userSpaceOnUse">
<stop stop-color="#5257EE"/>
<stop offset="0.915997" stop-color="#4884FA"/>
</linearGradient>
<linearGradient id="paint4_linear_186_80" x1="665.259" y1="637.954" x2="665.259" y2="856.044" gradientUnits="userSpaceOnUse">
<stop stop-color="#4F52EF"/>
<stop offset="1" stop-color="#4881F8"/>
</linearGradient>
<linearGradient id="paint5_linear_186_80" x1="1008" y1="812" x2="1008" y2="1232" gradientUnits="userSpaceOnUse">
<stop stop-color="#9597F4"/>
<stop offset="1" stop-color="#6A61F2"/>
</linearGradient>
</defs>
</svg>
